<svg width="158" height="32" xmlns="http://www.w3.org/2000/svg"><g fill="none" fill-rule="evenodd"><path d="M29.599.262H4.579C3.166.262 2.52.907 2.52 1.737c0 .83.677 1.413 1.568 2.304l8.483 8.478H1.567C.584 12.519 0 13.07 0 13.747c0 .4.154.799.83 1.444l15.737 15.727c.645.676 1.106.83 1.475.83.646 0 1.137-.461 1.137-1.29v-5.93c0-2.64-.46-3.624-2.12-5.467l-2.03-2.273c-.307-.338-.43-.522-.43-.799 0-.338.216-.583.523-.583.277 0 .461.154.738.46l12.694 12.656c1.014 1.013 1.475 1.567 2.336 1.567.983 0 1.537-.738 1.537-1.997V3.088c0-1.935-1.138-2.826-2.828-2.826" fill="#FFC20E"/><path d="M57.672 15.832c0-1.575.705-2.479 1.934-2.479 1.228 0 1.934.904 1.934 2.479v2.104c0 1.575-.706 2.479-1.934 2.479-1.229 0-1.934-.904-1.934-2.48v-2.103zm1.934-4.747c-2.972 0-4.818 1.919-4.818 5.01v1.579c0 3.09 1.846 5.009 4.818 5.009 2.971 0 4.818-1.919 4.818-5.01v-1.579c0-3.09-1.847-5.01-4.818-5.01zM74.926 7.891c-.236-.062-1.534-.317-3.123-.317-1.707 0-5.676.597-5.676 6.122v2.866c0 1.436.409 6.121 5.676 6.121 1.584 0 2.885-.254 3.123-.316l.006-.002c.174-.054.537-.166.537-.596v-1.307c0-.358-.198-.563-.544-.563h-.052c-.425.037-1.897.264-3.031.264-1.8 0-2.675-1.25-2.675-3.6v-2.867c0-2.383.85-3.602 2.675-3.602 1.098 0 2.485.218 3.044.265h.039c.346 0 .544-.205.544-.564V8.49c0-.43-.363-.542-.543-.598M99.436 11.085c-1.332 0-2.219.318-3.185.836-.512-.555-1.291-.836-2.318-.836-1.042 0-1.826.318-2.636.811v-.131c0-.3-.244-.544-.544-.544h-1.698c-.3 0-.544.244-.544.544v10.199c0 .305.249.563.544.563h1.795a.562.562 0 0 0 .544-.563v-8.049c.743-.39 1.28-.581 1.642-.581.923 0 1.192.228 1.192 1.737v6.893c0 .305.249.563.544.563h1.795a.562.562 0 0 0 .545-.563V15.07c0-.515-.022-.947-.066-1.316.672-.331 1.346-.421 1.648-.421.939 0 1.251.25 1.251 1.737v6.893c0 .305.25.563.544.563h1.795a.562.562 0 0 0 .545-.563v-6.63c0-1.979-.386-4.25-3.393-4.25M126.114 13.353c1.147 0 1.894.82 1.894 2.431h-3.827c0-1.61.762-2.43 1.933-2.43m0-2.27c-3.028 0-4.837 1.91-4.837 5.108v1.443c0 3.726 2.627 5.048 4.876 5.048 1.807 0 2.584-.106 3.812-.333.45-.075.538-.299.538-.66v-1.287c0-.266-.204-.445-.506-.445h-.073c-.874.084-2.195.194-3.575.194-1.836 0-2.166-1.353-2.187-2.227h6.206c.203 0 .544-.083.544-.642v-1.091c0-3.15-1.838-5.107-4.798-5.107M138.233 11.085c-.686 0-1.678.142-2.636.788v-.108c0-.3-.244-.544-.544-.544h-1.698c-.3 0-.544.244-.544.544v10.199c0 .305.249.563.544.563h1.795a.562.562 0 0 0 .545-.563v-8.008c.881-.45 1.646-.642 2.538-.642.3 0 .544-.244.544-.544V11.63c0-.3-.243-.544-.544-.544M146.605 11.343c-.233-.06-1.104-.258-2.556-.258-2.84 0-4.602 1.874-4.602 4.892v1.814c0 3.017 1.763 4.892 4.602 4.892 1.45 0 2.32-.197 2.554-.258.39-.091.527-.263.527-.656v-1.267c0-.268-.203-.447-.505-.447h-.078c-.753.095-1.216.136-2.498.136-1.124 0-1.72-.83-1.72-2.4v-1.814c0-1.57.596-2.4 1.72-2.4 1.28 0 1.744.04 2.517.136h.059c.302 0 .505-.18.505-.446v-1.268c0-.393-.138-.565-.525-.656M79.86 15.832c0-1.575.706-2.479 1.935-2.479 1.228 0 1.934.904 1.934 2.479v2.104c0 1.575-.706 2.479-1.934 2.479-1.229 0-1.934-.904-1.934-2.48v-2.103zm1.935-4.747c-2.972 0-4.818 1.919-4.818 5.01v1.579c0 3.09 1.846 5.009 4.818 5.009 2.971 0 4.818-1.919 4.818-5.01v-1.579c0-3.09-1.847-5.01-4.818-5.01zM115.985 11.085c-1.332 0-2.219.318-3.185.836-.512-.555-1.29-.836-2.318-.836-1.042 0-1.826.318-2.636.811v-.131c0-.3-.244-.544-.544-.544h-1.698c-.3 0-.544.244-.544.544v10.199c0 .305.249.563.544.563h1.795a.562.562 0 0 0 .545-.563v-8.049c.742-.39 1.28-.581 1.64-.581.924 0 1.193.228 1.193 1.737v6.893c0 .305.249.563.544.563h1.795a.562.562 0 0 0 .545-.563V15.07c0-.515-.022-.947-.066-1.316.672-.331 1.346-.421 1.649-.421.938 0 1.25.25 1.25 1.737v6.893c0 .305.25.563.545.563h1.795a.562.562 0 0 0 .544-.563v-6.63c0-1.979-.385-4.25-3.393-4.25M153.182 13.353c1.147 0 1.894.82 1.894 2.431h-3.827c0-1.61.762-2.43 1.933-2.43m0-2.27c-3.029 0-4.837 1.91-4.837 5.108v1.443c0 3.726 2.626 5.048 4.876 5.048 1.806 0 2.584-.106 3.811-.333.45-.075.538-.299.538-.66v-1.287c0-.266-.203-.445-.505-.445h-.073c-.874.084-2.196.194-3.576.194-1.835 0-2.165-1.353-2.186-2.227h6.206c.203 0 .544-.083.544-.642v-1.091c0-3.15-1.839-5.107-4.798-5.107M52.488 14.268h-4.159a.45.45 0 0 0-.45.45v1.419a.45.45 0 0 0 .45.449h1.766v3.583c-.586.068-1.046.148-2.085.148-1.252 0-2.555-1.185-2.555-3.774v-2.808c0-2.245.876-3.641 2.402-3.641 1.536 0 2.917.161 4.117.265h.059c.488 0 .544-.322.544-.564V8.49c0-.396-.262-.507-.497-.56a25.624 25.624 0 0 0-4.223-.355c-.91 0-5.442.297-5.442 6.16v2.809c0 4.847 3.418 6.14 5.595 6.14 2.119 0 3.291-.248 4.432-.476l.004-.001c.321-.074.491-.288.491-.618v-6.87a.45.45 0 0 0-.45-.45" fill="#142032"/></g></svg>