<?xml version="1.0" encoding="UTF-8"?>
<svg width="158px" height="32px" viewBox="0 0 158 32" version="1.1" xmlns="http://www.w3.org/2000/svg" xmlns:xlink="http://www.w3.org/1999/xlink">
    <!-- Generator: sketchtool 52.2 (67145) - http://www.bohemiancoding.com/sketch -->
    <title>2BF30658-B4D8-4F35-BCBC-5CD1D2A491C5</title>
    <desc>Created with sketchtool.</desc>
    <g id="Desktop-Wide" stroke="none" stroke-width="1" fill="none" fill-rule="evenodd">
        <g id="00---onboard-/-07-password-new" transform="translate(-167.000000, -159.000000)">
            <g id="GoCommerce-/-Brand" transform="translate(167.000000, 159.000000)">
                <g id="Group" transform="translate(0.000000, 0.262295)">
                    <path d="M29.5988066,-2.62295082e-05 L4.57942791,-2.62295082e-05 C3.16582658,-2.62295082e-05 2.5204412,0.644957377 2.5204412,1.47433443 C2.5204412,2.30397377 3.19653422,2.88758033 4.08784319,3.77833443 L12.5710259,12.2562361 L1.56745449,12.2562361 C0.584022591,12.2562361 5.24916944e-05,12.8091541 5.24916944e-05,13.4848262 C5.24916944e-05,13.8840393 0.153590698,14.2835148 0.829683721,14.9284984 L16.5666937,30.6557115 C17.2120791,31.3313836 17.6732186,31.4848262 18.0422352,31.4848262 C18.6876206,31.4848262 19.1792053,31.0242361 19.1792053,30.1951213 L19.1792053,24.2664656 C19.1792053,21.6248918 18.7180658,20.6420721 17.0585409,18.7989246 L15.0297369,16.5258754 C14.722398,16.187777 14.5995674,16.0033836 14.5995674,15.7269246 C14.5995674,15.3890885 14.8147834,15.1435803 15.1221223,15.1435803 C15.3987535,15.1435803 15.5829993,15.2972852 15.8596306,15.6044328 L28.553697,28.2599082 C29.568099,29.2731541 30.0292385,29.8263344 30.8895774,29.8263344 C31.8732718,29.8263344 32.4265342,29.089023 32.4265342,27.8297443 L32.4265342,2.82594098 C32.4265342,0.890727869 31.2893017,-2.62295082e-05 29.5988066,-2.62295082e-05" id="Fill-1" fill="#FFC20E"></path>
                    <path d="M57.6718635,15.5695213 C57.6718635,13.9947016 58.3770894,13.0908328 59.6056575,13.0908328 C60.834488,13.0908328 61.539714,13.9947016 61.539714,15.5695213 L61.539714,17.6736525 C61.539714,19.2487344 60.834488,20.1526033 59.6056575,20.1526033 C58.3770894,20.1526033 57.6718635,19.2487344 57.6718635,17.6736525 L57.6718635,15.5695213 Z M59.6056575,10.8225049 C56.6341027,10.8225049 54.7879698,12.741718 54.7879698,15.8318164 L54.7879698,17.4113574 C54.7879698,20.501718 56.6341027,22.4206689 59.6056575,22.4206689 C62.5772123,22.4206689 64.4236076,20.501718 64.4236076,17.4113574 L64.4236076,15.8318164 C64.4236076,12.741718 62.5772123,10.8225049 59.6056575,10.8225049 Z" id="Fill-4" fill="#142032"></path>
                    <path d="M74.9256734,7.62919344 C74.6899857,7.56650492 73.392391,7.31207869 71.8026801,7.31207869 C70.0959126,7.31207869 66.1267532,7.90827541 66.1267532,13.433259 L66.1267532,16.299882 C66.1267532,17.7356852 66.5359259,22.4208 71.8026801,22.4208 C73.3874043,22.4208 74.688411,22.1666361 74.9256734,22.1042098 L74.93171,22.1026361 C75.1057199,22.0486033 75.4687,21.9366033 75.4687,21.5064393 L75.4687,20.1999475 C75.4687,19.842177 75.2705439,19.6365377 74.9246236,19.6365377 L74.8729193,19.6370623 C74.4482615,19.6735213 72.975607,19.9011934 71.8417864,19.9011934 C70.0415837,19.9011934 69.1665472,18.6503082 69.1665472,16.299882 L69.1665472,13.433259 C69.1665472,11.0505705 70.0166502,9.83142295 71.8417864,9.83142295 C72.9396502,9.83142295 74.3272681,10.0496525 74.8860422,10.0968656 L74.9246236,10.0968656 C75.2705439,10.0968656 75.4687,9.89122623 75.4687,9.53293115 L75.4687,8.22670164 C75.4687,7.7965377 75.1057199,7.6848 74.9256734,7.62919344" id="Fill-6" fill="#142032"></path>
                    <path d="M99.4355678,10.8224525 C98.103591,10.8224525 97.2170063,11.1408787 96.2514216,11.6589115 C95.7388402,11.1036328 94.9598635,10.8224525 93.9333884,10.8224525 C92.8906409,10.8224525 92.1066774,11.141141 91.2967306,11.6339934 L91.2967306,11.5025836 C91.2967306,11.2030426 91.0526442,10.9588459 90.7526542,10.9588459 L89.0548103,10.9588459 C88.7550827,10.9588459 88.5107339,11.2030426 88.5107339,11.5025836 L88.5107339,21.7014033 C88.5107339,22.0067148 88.759807,22.2650754 89.0548103,22.2650754 L90.8497638,22.2650754 C91.145292,22.2650754 91.3943651,22.0067148 91.3943651,21.7014033 L91.3943651,13.653141 C92.1365977,13.2617967 92.6743751,13.0713705 93.0355179,13.0713705 C93.9588468,13.0713705 94.2276043,13.2993049 94.2276043,14.8090754 L94.2276043,21.7014033 C94.2276043,22.0067148 94.4769399,22.2650754 94.7722056,22.2650754 L96.5674216,22.2650754 C96.8621625,22.2650754 97.1117605,22.0067148 97.1117605,21.7014033 L97.1117605,14.8090754 C97.1117605,14.2936656 97.089714,13.8616656 97.0458834,13.4928787 C97.7177771,13.1616 98.3917704,13.0713705 98.694385,13.0713705 C99.6326741,13.0713705 99.9449997,13.3223869 99.9449997,14.8090754 L99.9449997,21.7014033 C99.9449997,22.0067148 100.194598,22.2650754 100.489339,22.2650754 L102.284292,22.2650754 C102.579558,22.2650754 102.829156,22.0067148 102.829156,21.7014033 L102.829156,15.0713705 C102.829156,13.093141 102.443342,10.8224525 99.4355678,10.8224525" id="Fill-8" fill="#142032"></path>
                    <path d="M126.114314,13.0908852 C127.261257,13.0908852 128.008214,13.9108197 128.008214,15.5218361 L124.181307,15.5218361 C124.181307,13.9108197 124.943224,13.0908852 126.114314,13.0908852 M126.114314,10.8225574 C123.085543,10.8225574 121.277467,12.731541 121.277467,15.9294426 L121.277467,17.3725902 C121.277467,21.0984918 123.903889,22.4207213 126.15342,22.4207213 C127.959922,22.4207213 128.737324,22.3142295 129.96458,22.0873443 C130.414958,22.0123279 130.502882,21.7888525 130.502882,21.428459 L130.502882,20.1411148 C130.502882,19.874623 130.299477,19.6952131 129.997125,19.6952131 L129.924424,19.6954754 C129.050437,19.7794098 127.728696,19.8900984 126.348689,19.8900984 C124.513317,19.8900984 124.183407,18.5371803 124.16241,17.6626885 L130.368241,17.6626885 C130.571384,17.6626885 130.912317,17.579541 130.912317,17.0211148 L130.912317,15.9294426 C130.912317,12.7792787 129.073796,10.8225574 126.114314,10.8225574" id="Fill-10" fill="#142032"></path>
                    <path d="M138.233281,10.8224525 C137.546952,10.8224525 136.555122,10.9643541 135.596886,11.6109115 L135.596886,11.5025836 C135.596886,11.2030426 135.352537,10.9588459 135.05281,10.9588459 L133.354966,10.9588459 C133.055238,10.9588459 132.810889,11.2030426 132.810889,11.5025836 L132.810889,21.7014033 C132.810889,22.0067148 133.059962,22.2650754 133.354966,22.2650754 L135.149919,22.2650754 C135.445448,22.2650754 135.694521,22.0067148 135.694521,21.7014033 L135.694521,13.6937967 C136.576381,13.244223 137.34066,13.0519607 138.233281,13.0519607 C138.533534,13.0519607 138.777358,12.8077639 138.777358,12.5079607 L138.777358,11.3664525 C138.777358,11.0666492 138.533534,10.8224525 138.233281,10.8224525" id="Fill-12" fill="#142032"></path>
                    <path d="M146.605024,11.0806557 C146.372224,11.0200656 145.500599,10.8225574 144.049204,10.8225574 C141.209928,10.8225574 139.446732,12.6971803 139.446732,15.7148852 L139.446732,17.5283934 C139.446732,20.5460984 141.209928,22.4207213 144.049204,22.4207213 C145.499024,22.4207213 146.368812,22.2237377 146.60345,22.162623 C146.99215,22.0716066 147.130204,21.899541 147.130204,21.506623 L147.130204,20.2392131 C147.130204,19.9719344 146.927061,19.7922623 146.624971,19.7922623 L146.547283,19.7933115 C145.794028,19.8877377 145.330788,19.9291803 144.049204,19.9291803 C142.924832,19.9291803 142.329838,19.0992787 142.329838,17.5283934 L142.329838,15.7148852 C142.329838,14.144 142.924832,13.3140984 144.049204,13.3140984 C145.329214,13.3140984 145.792978,13.3552787 146.566443,13.4504918 L146.624971,13.4504918 C146.927061,13.4504918 147.130204,13.271082 147.130204,13.0043279 L147.130204,11.7366557 C147.130204,11.3432131 146.991626,11.1714098 146.605024,11.0806557" id="Fill-14" fill="#142032"></path>
                    <path d="M79.8607588,15.5695213 C79.8607588,13.9947016 80.5659847,13.0908328 81.7948153,13.0908328 C83.0233834,13.0908328 83.7286093,13.9947016 83.7286093,15.5695213 L83.7286093,17.6736525 C83.7286093,19.2487344 83.0233834,20.1526033 81.7948153,20.1526033 C80.5659847,20.1526033 79.8607588,19.2487344 79.8607588,17.6736525 L79.8607588,15.5695213 Z M81.7948153,10.8225049 C78.822998,10.8225049 76.9768651,12.741718 76.9768651,15.8318164 L76.9768651,17.4113574 C76.9768651,20.501718 78.822998,22.4206689 81.7948153,22.4206689 C84.7663701,22.4206689 86.612503,20.501718 86.612503,17.4113574 L86.612503,15.8318164 C86.612503,12.741718 84.7663701,10.8225049 81.7948153,10.8225049 Z" id="Fill-16" fill="#142032"></path>
                    <path d="M115.984808,10.8224525 C114.652831,10.8224525 113.765984,11.1408787 112.800399,11.6589115 C112.28808,11.1036328 111.509104,10.8224525 110.482366,10.8224525 C109.439881,10.8224525 108.655918,11.141141 107.845708,11.6339934 L107.845708,11.5025836 C107.845708,11.2030426 107.601622,10.9588459 107.301632,10.9588459 L105.60405,10.9588459 C105.304323,10.9588459 105.059974,11.2030426 105.059974,11.5025836 L105.059974,21.7014033 C105.059974,22.0067148 105.309047,22.2650754 105.60405,22.2650754 L107.399004,22.2650754 C107.69427,22.2650754 107.943605,22.0067148 107.943605,21.7014033 L107.943605,13.653141 C108.685838,13.2617967 109.223615,13.0713705 109.584758,13.0713705 C110.508087,13.0713705 110.776845,13.2993049 110.776845,14.8090754 L110.776845,21.7014033 C110.776845,22.0067148 111.025918,22.2650754 111.321446,22.2650754 L113.116399,22.2650754 C113.411403,22.2650754 113.660738,22.0067148 113.660738,21.7014033 L113.660738,14.8090754 C113.660738,14.2936656 113.638954,13.8616656 113.595124,13.4928787 C114.267017,13.1616 114.941011,13.0713705 115.243625,13.0713705 C116.181914,13.0713705 116.49424,13.3223869 116.49424,14.8090754 L116.49424,21.7014033 C116.49424,22.0067148 116.743838,22.2650754 117.038579,22.2650754 L118.833532,22.2650754 C119.128798,22.2650754 119.378134,22.0067148 119.378134,21.7014033 L119.378134,15.0713705 C119.378134,13.093141 118.992582,10.8224525 115.984808,10.8224525" id="Fill-18" fill="#142032"></path>
                    <path d="M153.181866,13.0908852 C154.32881,13.0908852 155.075766,13.9108197 155.075766,15.5218361 L151.249122,15.5218361 C151.249122,13.9108197 152.010776,13.0908852 153.181866,13.0908852 M153.181866,10.8225574 C150.153095,10.8225574 148.345019,12.731541 148.345019,15.9294426 L148.345019,17.3725902 C148.345019,21.0984918 150.971441,22.4207213 153.220972,22.4207213 C155.027474,22.4207213 155.804876,22.3142295 157.032132,22.0873443 C157.482511,22.0123279 157.570434,21.7888525 157.570434,21.428459 L157.570434,20.1411148 C157.570434,19.874623 157.367029,19.6952131 157.064677,19.6952131 L156.992238,19.6954754 C156.117989,19.7794098 154.796248,19.8900984 153.416242,19.8900984 C151.580869,19.8900984 151.250959,18.5371803 151.229962,17.6626885 L157.435793,17.6626885 C157.638936,17.6626885 157.979869,17.579541 157.979869,17.0211148 L157.979869,15.9294426 C157.979869,12.7792787 156.141348,10.8225574 153.181866,10.8225574" id="Fill-20" fill="#142032"></path>
                    <path d="M52.4876525,14.0059803 L48.3292605,14.0059803 C48.0812372,14.0059803 47.8799316,14.2068984 47.8799316,14.4550295 L47.8799316,15.8743082 C47.8799316,16.122177 48.0812372,16.3233574 48.3292605,16.3233574 L50.0948186,16.3233574 L50.0948186,19.9068328 C49.5092738,19.9750295 49.0486591,20.0547672 48.0103734,20.0547672 C46.7576591,20.0547672 45.4550777,18.869718 45.4550777,16.280341 L45.4550777,13.4724721 C45.4550777,11.2280131 46.3306392,9.8312918 47.8568352,9.8312918 C49.3930047,9.8312918 50.7743236,9.99312787 51.9742837,10.0967344 L52.0325495,10.0967344 C52.5209847,10.0967344 52.5771508,9.77489836 52.5771508,9.5328 L52.5771508,8.22657049 C52.5771508,7.83024262 52.3149548,7.7195541 52.079792,7.66578361 C51.881111,7.62958689 50.0730346,7.31194754 47.8568352,7.31194754 C46.9479415,7.31194754 42.4152837,7.60860328 42.4152837,13.4724721 L42.4152837,16.280341 C42.4152837,21.1275541 45.8327555,22.4206689 48.0103734,22.4206689 C50.1286757,22.4206689 51.3010777,22.1728 52.4419847,21.9446033 L52.4464465,21.9435541 C52.7674332,21.8693246 52.9369814,21.6558164 52.9369814,21.3255869 L52.9369814,14.4550295 C52.9369814,14.2068984 52.7356757,14.0059803 52.4876525,14.0059803" id="Fill-22" fill="#142032"></path>
                </g>
            </g>
        </g>
    </g>
</svg>
